<?xml version="1.0" encoding="utf-8"?>
<!-- Generator: Adobe Illustrator 25.0.1, SVG Export Plug-In . SVG Version: 6.00 Build 0)  -->
<svg version="1.1" id="designs" xmlns="http://www.w3.org/2000/svg" xmlns:xlink="http://www.w3.org/1999/xlink" x="0px" y="0px"
	 viewBox="0 0 436.275 48.947" style="enable-background:new 0 0 436.275 48.947;" xml:space="preserve">
<style type="text/css">
	.st0{display:none;}
	.st1{display:inline;fill:#FAF8F1;}
	.st2{display:inline;fill:#C96112;}
	.st3{display:inline;fill:#D4A617;}
	.st4{display:inline;fill:#40381A;}
	.st5{fill:#D4A617;}
</style>
<g class="st0">
	<rect x="-627.863" y="-3766.868" class="st1" width="514" height="514"/>
	<rect x="-38.863" y="-3766.868" class="st1" width="514" height="514"/>
	<rect x="550.137" y="-3766.868" class="st1" width="514" height="514"/>
	<rect x="-627.863" y="-3177.868" class="st2" width="514" height="514"/>
	<rect x="-38.863" y="-3177.868" class="st2" width="514" height="514"/>
	<rect x="550.137" y="-3177.868" class="st2" width="514" height="514"/>
	<rect x="-627.863" y="-2588.868" class="st3" width="514" height="514"/>
	<rect x="-38.863" y="-2588.868" class="st3" width="514" height="514"/>
	<rect x="550.137" y="-2588.868" class="st3" width="514" height="514"/>
	<rect x="-627.863" y="-1999.868" class="st4" width="514" height="514"/>
	<rect x="-38.863" y="-1999.868" class="st4" width="514" height="514"/>
	<rect x="550.137" y="-1999.868" class="st4" width="514" height="514"/>
	<rect x="-627.863" y="-1410.868" class="st1" width="514" height="514"/>
	<rect x="-38.863" y="-1410.868" class="st1" width="514" height="514"/>
	<rect x="550.137" y="-1410.868" class="st1" width="514" height="514"/>
	<rect x="-627.863" y="-821.868" class="st1" width="514" height="514"/>
	<rect x="-38.863" y="-821.868" class="st1" width="514" height="514"/>
	<rect x="550.137" y="-821.868" class="st1" width="514" height="514"/>
	<rect x="-627.863" y="-232.868" class="st1" width="514" height="514"/>
	<rect x="-38.863" y="-232.868" class="st1" width="514" height="514"/>
	<rect x="550.137" y="-232.868" class="st1" width="514" height="514"/>
	<rect x="-627.863" y="356.132" class="st3" width="514" height="514"/>
	<rect x="-38.863" y="356.132" class="st3" width="514" height="514"/>
	<rect x="550.137" y="356.132" class="st3" width="514" height="514"/>
</g>
<g>
	<g>
		<path class="st5" d="M11.689,35.476H6.088l-1.492,4.932H0l6.697-20.974h4.383l6.697,20.974h-4.597L11.689,35.476z M7.306,31.489
			h3.197l-1.583-6.637L7.306,31.489z"/>
	</g>
	<g>
		<path class="st5" d="M390.761,23.208c-2.587,0-4.505,2.557-4.505,6.758c0,4.231,1.918,6.728,4.505,6.728
			c1.37,0,2.496-0.67,3.318-2.131l3.622,1.856c-1.644,2.953-3.987,4.293-6.94,4.293c-5.205,0-8.949-4.019-8.949-10.746
			c0-6.697,3.744-10.776,8.949-10.776c2.953,0,5.297,1.34,6.94,4.292l-3.622,1.857C393.227,23.878,392.101,23.208,390.761,23.208z"
			/>
		<path class="st5" d="M405.131,29.966c0-6.515,4.08-10.776,9.285-10.776s9.315,4.262,9.315,10.776
			c0,6.575-4.11,10.746-9.315,10.746S405.131,36.542,405.131,29.966z M419.287,29.966c0-4.079-2.131-6.758-4.87-6.758
			c-2.74,0-4.84,2.679-4.84,6.758c0,4.109,2.1,6.728,4.84,6.728C417.156,36.694,419.287,34.076,419.287,29.966z"/>
		<path class="st5" d="M433.93,35.933c1.279,0,2.345,1.004,2.345,2.404s-1.065,2.375-2.345,2.375c-1.278,0-2.313-0.975-2.313-2.375
			S432.652,35.933,433.93,35.933z"/>
	</g>
	<g>
		<path class="st5" d="M180.069,45.372v2.925h-19.306v-2.925c2.405-0.195,3.055-1.561,3.055-4.096V9.945
			c0-2.535-0.65-3.835-3.055-4.03V2.99L174.479,0h2.535v41.276C177.014,43.812,177.664,45.177,180.069,45.372z"/>
		<path class="st5" d="M217.249,32.892c0,10.465-8.58,16.056-18.136,16.056c-9.49,0-18.07-5.591-18.07-16.056
			c0-10.466,8.58-15.991,18.07-15.991C208.669,16.9,217.249,22.426,217.249,32.892z M204.184,32.892
			c0-6.891-1.495-12.936-5.07-12.936c-3.575,0-5.005,6.045-5.005,12.936c0,6.89,1.43,12.936,5.005,12.936
			C202.688,45.827,204.184,39.781,204.184,32.892z"/>
		<path class="st5" d="M259.239,45.372v2.925h-14.951v-3.51c-2.015,2.6-4.81,4.16-8.58,4.16c-8.84,0-13.391-4.94-13.391-12.156
			v-10.01c0-2.535-0.65-3.9-3.12-4.096v-2.925l13.326-2.86h2.925v20.476c0,4.811,1.234,6.891,3.835,6.891
			c2.405,0,3.771-2.34,3.771-6.63V26.781c0-2.535-0.65-3.9-3.12-4.096v-2.925l13.325-2.86h2.925v24.376
			C256.183,43.812,256.833,45.177,259.239,45.372z"/>
		<path class="st5" d="M301.748,46.932c-1.69,1.04-4.03,2.016-7.476,2.016c-3.186,0-6.176-1.235-7.54-3.445
			c-1.95,2.015-4.681,3.445-8.516,3.445c-8.971,0-15.73-6.11-15.73-16.056s6.76-15.991,15.73-15.991c2.795,0,5.07,0.65,6.76,1.886
			V9.945c0-2.535-0.649-3.835-3.055-4.03V2.99L295.637,0h2.535v42.187c0,2.146,1.625,2.535,2.99,2.08L301.748,46.932z
			 M286.082,32.892c0-6.501-1.365-12.351-5.2-12.351c-3.38,0-5.135,5.33-5.135,12.351c0,7.02,1.755,12.351,5.135,12.351
			C284.716,45.242,286.082,39.392,286.082,32.892z"/>
		<path class="st5" d="M334.117,40.951c-2.275,4.355-6.695,7.996-13.976,7.996c-8.646,0-17.681-5.916-17.031-16.706
			c0.585-9.49,7.801-15.73,17.096-15.341c10.011,0.391,13.976,6.956,13.846,15.016v1.04h-18.721c0.65,5.655,4.42,8.711,8.711,8.971
			c3.119,0.195,5.915-0.715,8.32-2.795L334.117,40.951z M315.266,28.666h8.189c0-4.095-0.649-8.905-3.64-8.905
			C317.021,19.761,315.59,23.791,315.266,28.666z"/>
		<path class="st5" d="M364.925,29.836c-3.055,1.3-7.28,0.261-8.19-5.2c-0.324-1.885-1.56-2.47-2.665-2.145
			c-1.495,0.455-1.819,2.665-1.819,7.28v11.505c0,2.535,0.649,3.9,3.119,4.096v2.925h-19.306v-2.925
			c2.405-0.195,3.056-1.561,3.056-4.096V26.781c0-2.535-0.65-3.9-3.056-4.096v-2.925l12.416-2.925h2.535v4.68
			c1.82-3.055,4.615-4.68,8.58-4.68c3.51,0,6.436,1.625,7.995,4.615C368.76,23.661,368.826,28.146,364.925,29.836z"/>
	</g>
	<g>
		<path class="st5" d="M37.948,19.434v16.955h6.605v4.019h-11.05V19.434H37.948z"/>
		<path class="st5" d="M57.614,19.434v20.974H53.17V19.434H57.614z"/>
		<path class="st5" d="M80.537,19.434v4.018h-4.901v16.956h-4.444V23.452h-4.901v-4.018H80.537z"/>
		<path class="st5" d="M102.03,19.434v4.018h-4.901v16.956h-4.444V23.452h-4.901v-4.018H102.03z"/>
		<path class="st5" d="M115.152,19.434v16.955h6.605v4.019h-11.05V19.434H115.152z"/>
		<path class="st5" d="M142.276,19.434v4.018h-7.458v4.536h6.454v4.019h-6.454v4.383h7.641v4.019h-12.085V19.434H142.276z"/>
	</g>
</g>
</svg>
