<svg width="40" height="40" viewBox="0 0 40 40" fill="none" xmlns="http://www.w3.org/2000/svg">
<mask id="mask0" style="mask-type:alpha" maskUnits="userSpaceOnUse" x="0" y="0" width="40" height="40">
<circle cx="20" cy="20" r="20" fill="#D99BFF"/>
</mask>
<g mask="url(#mask0)">
<circle cx="20" cy="20" r="20" fill="#E7C8D8"/>
<path fill-rule="evenodd" clip-rule="evenodd" d="M38.4111 0H36.5889V13.5794L33.0743 0.462619L31.3141 0.934245L34.8288 14.0511L28.039 2.2909L26.461 3.20201L33.2506 14.962L23.6486 5.35998L22.3601 6.64849L31.9623 16.2507L20.202 9.4609L19.2909 11.039L31.0507 17.8285L17.9343 14.314L17.4627 16.0741L30.5799 19.5889H17V21.4111H30.5796L17.4627 24.9258L17.9343 26.6859L31.0511 23.1713L19.2909 29.961L20.202 31.5391L31.9622 24.7494L22.3601 34.3515L23.6486 35.64L33.2506 26.038L26.461 37.7979L28.039 38.7091L34.8288 26.9488L31.3142 40.0656L33.0743 40.5373L36.5889 27.4207V41H38.4111V27.4205L41.9257 40.5372L43.6858 40.0656L40.1713 26.949L46.961 38.7091L48.539 37.7979L41.7492 26.0377L51.3514 35.6399L52.6399 34.3514L43.0379 24.7494L54.7979 31.539L55.7091 29.9609L43.9486 23.171L57.0656 26.6857L57.5373 24.9256L44.4211 21.4111H58V19.5889H44.4207L57.5373 16.0743L57.0657 14.3142L43.949 17.8288L55.7091 11.0391L54.798 9.46101L43.0378 16.2507L52.6399 6.64862L51.3514 5.36012L41.7492 14.9623L48.539 3.20201L46.961 2.2909L40.1713 14.0509L43.6859 0.934299L41.9258 0.462674L38.4111 13.5795V0Z" fill="#FEF6E7"/>
</g>
</svg>
