<svg width="1920" height="170" viewBox="0 0 1920 170" fill="none" xmlns="http://www.w3.org/2000/svg">
<path d="M0.996662 20.4723C5.80576 17.4391 11.5883 15.7356 17.2085 13.8235C39.1681 6.34047 62.1591 2.12527 86.2509 0.760757C112.626 -0.734119 138.606 0.334891 164.309 5.08025C189.061 9.65179 211.287 18.3342 232.691 28.4073C240.814 32.2314 248.787 36.2206 257.119 39.8013C275.474 47.6929 295.255 51.6039 316.3 51.9429C325.663 52.0906 335.038 52.2123 344.413 51.5344C366.372 49.9526 386.003 43.7384 404.451 34.9865C414.903 30.0325 425.368 25.0959 436.075 20.4636C461.952 9.26938 489.844 2.89878 519.626 0.917198C541.412 -0.534222 563.024 -0.0388272 584.601 2.55113C615.089 6.2101 642.333 15.7617 667.966 28.2508C678.511 33.3873 688.964 38.6194 700.309 42.7737C716.057 48.5446 732.582 51.6387 750.15 52.108C761.68 52.4209 773.164 52.3948 784.59 51.4388C803.142 49.8831 819.968 44.5902 835.867 37.4461C849.032 31.5361 861.64 24.9395 875.082 19.3598C900.46 8.82613 927.576 2.82925 956.466 0.908507C977.197 -0.464693 997.72 0.0220108 1018.25 2.51637C1048.73 6.21879 1075.97 15.7443 1101.78 27.9988C1109.88 31.849 1118 35.6818 1126.27 39.3233C1145.05 47.606 1165.42 51.7777 1187.2 51.9429C1198.06 52.0211 1208.9 52.2557 1219.75 51.0651C1236.68 49.2139 1252.28 44.7901 1267.01 38.4021C1280.11 32.7181 1292.45 26.1215 1305.68 20.5679C1331.91 9.55619 1359.79 2.78579 1389.84 0.882433C1411.64 -0.508149 1433.24 0.0393929 1454.83 2.60328C1485.55 6.25356 1512.9 16.0224 1538.89 28.3377C1546.99 32.1792 1554.98 36.1511 1563.32 39.7405C1581.86 47.7277 1601.83 51.6734 1623.12 51.9429C1632.91 52.0645 1642.73 52.36 1652.5 51.4388C1673.42 49.4746 1692.43 43.808 1710.13 35.3254C1720.9 30.1629 1731.75 25.0699 1742.83 20.2897C1766.6 10.0342 1792.19 3.62014 1819.44 1.33437C1853.48 -1.51632 1887.12 0.0046277 1920 7.80058C1920 78.164 1920 99.9881 1920 170.343C1284.36 170.36 635.635 170.36 0 170.447C0.185411 107.132 0.11596 87.9329 0.162313 24.6092C0.208666 23.2273 -0.486625 21.7151 0.996662 20.4723Z" fill="#EC9D5E"/>
</svg>
