<svg width="200" height="200" viewBox="0 0 200 200" fill="none" xmlns="http://www.w3.org/2000/svg">
<path fill-rule="evenodd" clip-rule="evenodd" d="M95.5555 0H104.444V66.243L121.589 2.25836L130.175 4.55898L113.031 68.5409L146.151 11.1755L153.849 15.6199L120.73 72.9833L167.568 26.1456L173.853 32.431L127.012 79.2721L184.38 46.1506L188.825 53.8486L131.456 86.9705L195.442 69.8254L197.743 78.4114L133.761 95.5554H200V104.444H133.752L197.743 121.591L195.442 130.177L131.462 113.033L188.825 146.151L184.38 153.849L127.01 120.727L173.853 167.57L167.568 173.855L120.731 127.019L153.849 184.38L146.151 188.825L113.03 131.457L130.175 195.443L121.589 197.744L104.444 133.76V200H95.5555V133.761L78.4112 197.744L69.8252 195.444L86.9702 131.458L53.8491 188.825L46.1511 184.381L79.2734 127.011L32.4321 173.852L26.1467 167.567L72.9846 120.729L15.6199 153.849L11.1754 146.151L68.5396 113.031L4.55786 130.175L2.25725 121.589L66.243 104.444H0V95.5554H66.2342L2.2571 78.4128L4.55771 69.8268L68.5457 86.9723L11.1752 53.8494L15.6197 46.1514L72.9824 79.2698L26.1466 32.434L32.432 26.1486L79.2743 72.991L46.1511 15.6198L53.8491 11.1753L86.9688 68.5404L69.8249 4.55834L78.4109 2.25773L95.5555 66.2422V0Z" fill="#FEF6E7"/>
</svg>
