<?xml version="1.0" encoding="utf-8"?>
<!-- Generator: Adobe Illustrator 25.0.1, SVG Export Plug-In . SVG Version: 6.00 Build 0)  -->
<svg version="1.1" id="Layer_1" xmlns="http://www.w3.org/2000/svg" xmlns:xlink="http://www.w3.org/1999/xlink" x="0px" y="0px"
	 viewBox="0 0 383.588 87.826" style="enable-background:new 0 0 383.588 87.826;" xml:space="preserve">
<style type="text/css">
	.st0{display:none;}
	.st1{display:inline;fill:#FAF8F1;}
	.st2{display:inline;fill:#EC9D5E;}
	.st3{display:inline;fill:#A39952;}
	.st4{display:inline;fill:#D4A617;}
	.st5{display:inline;fill:#A2CEBF;}
	.st6{display:inline;fill:#BD7607;}
	.st7{display:inline;}
	.st8{clip-path:url(#SVGID_2_);}
	.st9{fill:#EC9D5E;}
	.st10{clip-path:url(#SVGID_4_);fill:#A39952;}
	.st11{clip-path:url(#SVGID_4_);fill:#EC9D5E;}
	.st12{clip-path:url(#SVGID_6_);}
	.st13{fill:#D4A617;}
	.st14{clip-path:url(#SVGID_8_);fill:#A2CEBF;}
	.st15{clip-path:url(#SVGID_8_);fill:#D4A617;}
	.st16{clip-path:url(#SVGID_10_);fill:#D4A617;}
	.st17{clip-path:url(#SVGID_10_);fill:#BD7607;}
	.st18{clip-path:url(#SVGID_12_);}
	.st19{clip-path:url(#SVGID_14_);fill:#A39952;}
	.st20{clip-path:url(#SVGID_14_);fill:#EC9D5E;}
	.st21{clip-path:url(#SVGID_16_);}
	.st22{clip-path:url(#SVGID_18_);fill:#A2CEBF;}
	.st23{clip-path:url(#SVGID_18_);fill:#D4A617;}
	.st24{clip-path:url(#SVGID_20_);fill:#D4A617;}
	.st25{clip-path:url(#SVGID_20_);fill:#BD7607;}
	.main{fill:#40381A;}
</style>
<g id="bg" class="st0">
	<rect x="-2692.144" y="-842.789" class="st1" width="514" height="514"/>
	<rect x="-1357.144" y="-842.789" class="st1" width="514" height="514"/>
	<rect x="-65.206" y="-842.789" class="st1" width="514" height="514"/>
	<rect x="1248.263" y="-842.789" class="st1" width="514" height="514"/>
	<rect x="2499.864" y="-842.789" class="st1" width="514" height="514"/>
	<rect x="-2692.144" y="-213.087" class="st2" width="514" height="514"/>
	<rect x="-1357.144" y="-213.087" class="st3" width="514" height="514"/>
	<rect x="-65.206" y="-213.087" class="st4" width="514" height="514"/>
	<rect x="1248.263" y="-213.087" class="st5" width="514" height="514"/>
	<rect x="2499.864" y="-213.087" class="st6" width="514" height="514"/>
	<rect x="3033.864" y="428.822" class="st1" width="514" height="514"/>
	<rect x="1782.263" y="428.822" class="st1" width="514" height="514"/>
	<rect x="468.794" y="428.822" class="st1" width="514" height="514"/>
	<rect x="-823.143" y="428.822" class="st1" width="514" height="514"/>
	<rect x="-2158.144" y="428.822" class="st1" width="514" height="514"/>
	<rect x="-2692.144" y="428.822" class="st1" width="514" height="514"/>
	<rect x="-1357.144" y="428.822" class="st1" width="514" height="514"/>
	<rect x="-65.206" y="428.822" class="st1" width="514" height="514"/>
	<rect x="1248.263" y="428.822" class="st1" width="514" height="514"/>
	<rect x="2499.864" y="428.822" class="st1" width="514" height="514"/>
	<rect x="3033.864" y="1082.635" class="st6" width="514" height="514"/>
	<rect x="1782.263" y="1082.635" class="st5" width="514" height="514"/>
	<rect x="468.794" y="1082.635" class="st4" width="514" height="514"/>
	<rect x="-823.143" y="1082.635" class="st3" width="514" height="514"/>
	<rect x="-2158.144" y="1082.635" class="st2" width="514" height="514"/>
	<rect x="-2692.144" y="1082.635" class="st2" width="514" height="514"/>
	<rect x="-1357.144" y="1082.635" class="st3" width="514" height="514"/>
	<rect x="-65.206" y="1082.635" class="st4" width="514" height="514"/>
	<rect x="1248.263" y="1082.635" class="st5" width="514" height="514"/>
	<rect x="2499.864" y="1082.635" class="st6" width="514" height="514"/>
	<rect x="3033.864" y="1726.123" class="st1" width="514" height="514"/>
	<rect x="1782.263" y="1726.123" class="st1" width="514" height="514"/>
	<rect x="468.794" y="1726.123" class="st1" width="514" height="514"/>
	<rect x="-823.143" y="1726.123" class="st1" width="514" height="514"/>
	<rect x="-2158.144" y="1726.123" class="st1" width="514" height="514"/>
	<rect x="-2692.144" y="1726.123" class="st1" width="514" height="514"/>
	<rect x="-1357.144" y="1726.123" class="st1" width="514" height="514"/>
	<rect x="-65.206" y="1726.123" class="st1" width="514" height="514"/>
	<rect x="1248.263" y="1726.123" class="st1" width="514" height="514"/>
	<rect x="2499.864" y="1726.123" class="st1" width="514" height="514"/>
	<g class="st7">
		<defs>
			<rect id="SVGID_1_" x="-2158.144" y="-213.087" width="514" height="514"/>
		</defs>
		<use xlink:href="#SVGID_1_"  style="overflow:visible;fill:#E7C8D8;"/>
		<clipPath id="SVGID_2_">
			<use xlink:href="#SVGID_1_"  style="overflow:visible;"/>
		</clipPath>
		<g class="st8">
			<path class="st9" d="M-1149.907,517.063l-17.848,48.987c-2.555,7.014-89.089,242.143-220.002,279.078
				c-132.885,37.492-29.618-342.156-224.972-325.672c-195.36,16.499-586.281,396.519-768.252,154.903
				c-181.955-241.61-542.794-145.172-542.794-145.172l27.529-75.559c0,0,376.39-97.16,563.22,157.392
				c186.814,254.546,558.95-135.203,746.017-146.425c187.062-11.206,84.124,350.053,217.002,314.328
				C-1237.138,743.179-1153.2,506.627-1149.907,517.063z"/>
			<path class="st9" d="M-1074.867,311.101l-19.009,52.174c-13.161-41.777-87.348,179.183-220.214,209.674
				c-132.881,30.486-30.893-275.664-193.073-280.253c-162.185-4.573-477.992,414.297-679.381,120.981
				c-201.368-293.327-624.447-194.05-624.447-194.05l28.747-78.901c0,0,438.624-99.983,644.857,206.264
				s503.286-122.341,657.162-112.496c153.892,9.851,52.228,297.629,185.087,268.904
				C-1162.256,474.662-1091.321,258.888-1074.867,311.101z"/>
			<path class="st9" d="M-1037.008,207.19l-18.901,51.877c-19.747-62.649-87.431,147.939-220.304,174.907
				c-132.879,26.983-31.523-242.416-177.123-257.544c-145.589-15.107-423.85,423.194-634.944,104.012
				c-211.083-319.161-665.268-218.478-665.268-218.478l28.639-78.605c0,0,469.751-101.4,685.695,230.697
				c215.927,332.091,475.428-115.912,612.724-95.528c137.286,20.363,36.265,271.411,169.143,246.179
				C-1124.475,339.492-1060.027,134.095-1037.008,207.19z"/>
			<path class="st9" d="M-999.366,103.873l-18.798,51.596c-26.307-83.548-87.512,116.643-220.373,140.13
				c-132.871,23.465-32.179-209.195-161.173-234.835c-129.01-25.646-369.713,432.055-590.505,87.043
				c-220.803-345.033-706.099-242.927-706.099-242.927l28.531-78.308c0,0,500.864-102.822,726.516,255.125
				s447.585-109.476,568.286-78.558c120.707,30.902,20.318,245.199,153.187,223.485C-1086.92,204.895-1028.966,9.89-999.366,103.873
				z"/>
			<path class="st9" d="M-961.94,1.15l-18.685,51.283c-32.893-104.42-87.595,85.4-220.464,105.363
				c-132.868,19.962-32.803-175.962-145.217-212.141c-112.404-36.158-315.571,440.951-546.073,70.089S-2639.3-251.61-2639.3-251.61
				l28.428-78.027c0,0,531.985-104.223,767.332,279.569c235.362,383.798,419.743-103.04,523.87-61.599
				c104.106,41.451,4.364,219.002,137.237,200.776C-1049.565,70.897-998.12-113.722-961.94,1.15z"/>
			<path class="st9" d="M-949.174-33.888l-6.431,17.652c-32.887-104.436-86.247,54.696-217.353,66.082
				c-126.23,10.968-41.627-152.228-143.269-193.011c-108.987-44.079-283.482,387.456-525.747,51.502
				c-247.255-342.851-753.952-278.993-753.952-278.993l15.037-41.271c0,0,479.428-25.291,740.572,278.419
				c247.161,287.45,413.648-87.867,527.63-41.42c99.087,40.366,29.92,189.315,149.316,185.252
				C-1033.806,5.932-978.78-127.856-949.174-33.888z"/>
			<path class="st9" d="M-937.928-64.755l-4.638,12.731c-26.312-83.532-82.764,25.176-211.042,22.34
				c-112.388-2.497-58.769-137.718-155.342-177.504c-118.897-48.981-280.277,270.212-529.528,31.333
				c-277.698-266.142-727.187-277.859-727.187-277.859l13.249-36.365c0,0,416.202,47.86,713.807,277.284
				c247.9,191.108,407.609-72.797,531.411-21.251c94.07,39.175,56.128,161.139,161.374,169.739
				C-1018.64-53.906-960.947-137.85-937.928-64.755z"/>
			<path class="st9" d="M-927.075-94.544l-5.811,15.949c-19.742-62.665-78.538-3.081-204.735-21.439
				c-98.036-14.255-75.82-123.458-167.421-161.98c-128.695-54.143-290.432,156.417-533.304,11.148
				c-321.333-192.222-700.411-276.703-700.411-276.703l14.422-39.583c0,0,338.139,123.657,687.026,276.144
				c234.504,102.479,401.61-57.837,535.187-1.066c89.131,37.871,82.634,134.77,173.468,154.222
				C-1003.417-111.034-943.529-146.757-927.075-94.544z"/>
			<path class="st9" d="M-907.827-147.374l-11.098,30.461c-13.161-41.777-74.242-29.296-198.434-65.202
				c-83.677-24.187-92.827-109.27-179.478-146.467c-138.453-59.415-313.091,54.504-537.086-9.022
				c-379.38-107.594-673.651-275.553-673.651-275.553l19.715-54.111c0,0,249.462,220.041,660.266,274.994
				c213.134,28.498,395.657-43.002,538.968,19.104c84.199,36.499,108.8,110.206,185.526,138.708
				C-980.235-188.795-917.695-178.714-907.827-147.374z"/>
			<path class="st9" d="M-883.713-213.56l-12.282,33.71c-6.581-20.888-71.057-52.802-192.133-108.965
				c-70.02-32.483-109.784-95.17-191.557-130.944c-148.138-64.837-336.954-32.4-540.845-29.201
				c-440.19,6.906-646.886-274.419-646.886-274.419l20.887-57.329c0,0,169.133,350.962,633.49,273.838
				c197.875-32.871,389.875-28.493,542.744,39.288c79.361,34.966,133.93,86.981,197.604,123.185
				C-954.109-276.968-887.006-223.996-883.713-213.56z"/>
			<path class="st9" d="M-1112.93,415.574l-19.111,52.455c-6.581-20.888-87.261,210.463-220.144,244.452
				c-132.867,33.994-30.248-308.907-209.028-302.948c-178.759,5.95-532.134,405.401-723.792,137.924
				c-191.68-267.466-583.631-169.606-583.631-169.606l28.849-79.182c0,0,407.512-98.561,604.036,181.835
				c196.53,280.381,531.129-128.777,701.6-129.465c170.472-0.688,68.161,323.835,201.037,291.613
				C-1200.233,610.415-1122.804,384.249-1112.93,415.574z"/>
		</g>
	</g>
	<g class="st7">
		<defs>
			<rect id="SVGID_3_" x="-823.143" y="-213.087" width="514" height="514"/>
		</defs>
		<use xlink:href="#SVGID_3_"  style="overflow:visible;fill:#EC9D5E;"/>
		<clipPath id="SVGID_4_">
			<use xlink:href="#SVGID_3_"  style="overflow:visible;"/>
		</clipPath>
		<path class="st10" d="M-717.148-121.07c49.816-3.605,100.668,4.714,149.413-6.18c39.678-8.868,75.493-29.958,114.131-42.612
			c49.645-16.258,102.713-18.232,153.881-28.762c51.167-10.529,103.729-32.212,132.459-75.841
			c5.865,210.32,11.729,420.64,17.594,630.961c0.285,10.211,0.428,21.017-4.661,29.875c-9.398,16.359-31.541,18.887-50.396,19.543
			c-201.456,7.007-402.912,14.014-604.368,21.022c-13.094,0.455-27.478,0.497-37.589-7.835
			c-10.008-8.247-12.774-22.19-14.902-34.983C-886.342,235.311-946.001-104.508-717.148-121.07z"/>
		<path class="st11" d="M-715.386-47.047c48.723,13.271,95.096,41.29,145.509,38.346c32.742-1.912,65.601-16.956,97.259-8.387
			c21.508,5.822,38.591,21.663,57.567,33.34c48.586,29.896,113.352,31.334,163.217,3.626c20.689-11.495,45.896-27.784,65.429-14.42
			c13.475,9.219,15.643,27.882,16.549,44.184c6.486,116.779,12.972,233.557,19.458,350.335
			c-235.8,2.956-471.599,5.912-707.399,8.868c1.724-110.137,3.451-220.273,5.174-330.41c0.6-38.356-6.887-77.7,23.72-106.085
			C-799.384-55.024-752.516-57.16-715.386-47.047z"/>
		<path class="st10" d="M-804.956,99.608c29.567-4.704,58.837,8.091,85.84,21.021c27.003,12.93,55.552,26.66,85.366,23.938
			c39.482-3.606,71.409-35.166,110.369-42.514c32.954-6.215,66.328,5.584,99.713,8.756c91.773,8.721,175.812-47.193,250.974-100.57
			c13.301,133.798,26.602,267.597,39.903,401.396c-254.575-1.949-509.151-3.898-763.726-5.847
			c10.443-67.604,24.651-135.766,31.131-203.86C-861.439,160.451-858.17,108.074-804.956,99.608z"/>
		<path class="st11" d="M-747.951,252.728c49.88,8.833,98.493,31.425,148.889,26.314c75.25-7.631,131.367-73.993,203.705-96.083
			c33.951-10.368,70.063-10.522,105.15-15.918s71.5-17.534,93.587-45.326c0.993,90.792,1.986,181.585,2.979,272.377
			c-225.995,5.612-451.99,11.224-677.984,16.836c0.929-33.42-12.25-95.873,3.186-125.067
			C-848.726,248.58-782.877,246.544-747.951,252.728z"/>
	</g>
	<g class="st7">
		<defs>
			<rect id="SVGID_5_" x="468.794" y="-213.087" width="514" height="514"/>
		</defs>
		<use xlink:href="#SVGID_5_"  style="overflow:visible;fill:#E7C8D8;"/>
		<clipPath id="SVGID_6_">
			<use xlink:href="#SVGID_5_"  style="overflow:visible;"/>
		</clipPath>
		<g class="st12">
			<path class="st13" d="M1182.063,500.429l-22.471,61.675c-3.217,8.83-112.163,304.857-276.982,351.359
				c-167.302,47.202-37.289-430.773-283.239-410.021c-245.958,20.772-738.126,499.217-967.226,195.023
				c-229.081-304.186-683.375-182.771-683.375-182.771l34.659-95.128c0,0,473.874-122.324,709.092,198.156
				c235.199,320.473,703.716-170.22,939.233-184.348c235.51-14.108,105.912,440.716,273.205,395.738
				C1072.239,785.108,1177.917,487.29,1182.063,500.429z"/>
			<path class="st13" d="M1276.538,241.123l-23.932,65.687c-16.57-52.597-109.971,225.59-277.248,263.979
				c-167.297,38.382-38.895-347.061-243.078-352.838c-204.19-5.758-601.79,521.599-855.339,152.315
				C-376.581,0.969-909.235,125.958-909.235,125.958l36.192-99.337c0,0,552.226-125.878,811.873,259.685
				s633.635-154.027,827.365-141.633c193.75,12.402,65.755,374.714,233.024,338.549
				C1166.514,447.046,1255.822,175.388,1276.538,241.123z"/>
			<path class="st13" d="M1324.201,110.301l-23.796,65.313c-24.862-78.875-110.075,186.255-277.362,220.208
				C855.749,429.793,983.355,90.62,800.047,71.574C616.75,52.554,266.42,604.374,0.655,202.525
				c-265.753-401.823-837.57-275.062-837.57-275.062l36.056-98.963c0,0,591.415-127.662,863.287,290.447
				C334.279,537.048,660.99-26.986,833.846-1.322c172.843,25.637,45.658,341.705,212.95,309.939
				C1214.081,276.868,1295.22,18.274,1324.201,110.301z"/>
			<path class="st13" d="M1371.593-19.775l-23.667,64.959c-33.12-105.186-110.178,146.854-277.449,176.423
				C903.193,251.15,1029.963-41.768,867.56-74.049C705.138-106.337,402.093,469.906,124.116,35.538
				c-277.99-434.395-888.977-305.844-888.977-305.844l35.92-98.589c0,0,630.586-129.453,914.681,321.201
				s563.508-137.83,715.471-98.904c151.97,38.905,25.58,308.704,192.862,281.367C1261.363,107.411,1334.327-138.1,1371.593-19.775z"
				/>
			<path class="st13" d="M1418.712-149.103l-23.524,64.566c-41.412-131.465-110.282,107.519-277.564,132.651
				c-167.281,25.132-41.299-221.536-182.828-267.085c-141.516-45.523-397.303,555.156-687.504,88.242
				s-940.371-336.598-940.371-336.598l35.791-98.235c0,0,669.768-131.217,966.068,351.976
				c296.32,483.2,528.455-129.727,659.55-77.553c131.069,52.187,5.494,275.723,172.781,252.776
				C1308.392-61.292,1373.161-293.727,1418.712-149.103z"/>
			<path class="st13" d="M1434.784-193.216l-8.097,22.223c-41.405-131.485-108.584,68.862-273.647,83.197
				c-158.923,13.809-52.409-191.654-180.375-243c-137.215-55.495-356.903,487.806-661.914,64.841
				C-0.541-697.603-638.471-617.207-638.471-617.207l18.931-51.96c0,0,603.599-31.842,932.378,350.528
				C624.012,43.26,833.619-429.263,977.122-370.787c124.75,50.82,37.669,238.347,187.988,233.232
				C1328.234-143.083,1397.511-311.521,1434.784-193.216z"/>
			<path class="st13" d="M1448.943-232.077l-5.84,16.028c-33.127-105.167-104.2,31.697-265.701,28.126
				c-141.496-3.144-73.99-173.386-195.575-223.477c-149.691-61.667-352.868,340.196-666.675,39.448
				c-349.62-335.072-915.525-349.824-915.525-349.824l16.681-45.784c0,0,523.997,60.256,898.68,349.1
				c312.105,240.604,513.179-91.651,669.045-26.755c118.434,49.321,70.665,202.873,203.169,213.701
				C1347.327-218.418,1419.962-324.104,1448.943-232.077z"/>
			<path class="st13" d="M1462.607-269.582l-7.316,20.08c-24.855-78.895-98.879-3.879-257.761-26.991
				c-123.427-17.947-95.457-155.433-210.782-203.933c-162.027-68.166-365.653,196.928-671.428,14.035
				C-89.237-708.398-566.496-814.76-566.496-814.76l18.157-49.835c0,0,425.716,155.684,864.963,347.664
				c295.239,129.02,505.626-72.817,673.799-1.342c112.216,47.679,104.036,169.675,218.396,194.165
				C1366.492-290.342,1441.891-335.317,1462.607-269.582z"/>
			<path class="st13" d="M1486.84-336.094l-13.972,38.35c-16.57-52.596-93.471-36.884-249.828-82.089
				c-105.349-30.452-116.869-137.57-225.963-184.401c-174.312-74.803-394.181,68.621-676.189-11.358
				c-477.639-135.46-848.125-346.921-848.125-346.921l24.821-68.126c0,0,314.071,277.03,831.272,346.216
				c268.335,35.879,498.131-54.139,678.559,24.051c106.006,45.952,136.979,138.749,233.576,174.633
				C1395.679-388.244,1474.417-375.552,1486.84-336.094z"/>
			<path class="st13" d="M1517.2-419.422l-15.463,42.441c-8.285-26.298-89.461-66.478-241.895-137.186
				c-88.155-40.896-138.217-119.819-241.17-164.858c-186.505-81.63-424.224-40.791-680.923-36.764
				c-554.197,8.694-814.427-345.492-814.427-345.492l26.297-72.177c0,0,212.938,441.86,797.562,344.761
				c249.123-41.384,490.851-35.873,683.313,49.464c99.915,44.022,168.618,109.508,248.783,155.09
				C1428.572-499.253,1513.054-432.562,1517.2-419.422z"/>
			<path class="st13" d="M1228.616,372.655l-24.061,66.041c-8.285-26.298-109.861,264.972-277.161,307.764
				c-167.279,42.799-38.082-388.913-263.166-381.41C439.171,372.541-5.726,875.448-247.024,538.696
				c-241.324-336.739-734.789-213.533-734.789-213.533l36.321-99.69c0,0,513.056-124.088,760.479,228.93
				C62.417,807.401,483.676,292.273,698.3,291.406c214.624-0.867,85.814,407.707,253.105,367.14
				C1118.702,617.959,1216.185,333.217,1228.616,372.655z"/>
		</g>
	</g>
	<g class="st7">
		<defs>
			<rect id="SVGID_7_" x="1782.263" y="-213.087" width="514" height="514"/>
		</defs>
		<use xlink:href="#SVGID_7_"  style="overflow:visible;fill:#D4A617;"/>
		<clipPath id="SVGID_8_">
			<use xlink:href="#SVGID_7_"  style="overflow:visible;"/>
		</clipPath>
		<path class="st14" d="M1905.958,271.11c-40.727-0.859-74.558-29.576-110.3-49.119c-73.988-40.453-167.853-42.118-243.228-4.314
			c-4.766-153.903-9.531-307.806-14.297-461.709c-0.439-14.164-0.418-29.736,8.673-40.607c10.372-12.402,28.504-14.05,44.655-14.766
			c244.335-10.845,488.67-21.689,733.006-32.534c21.191,159.019,29.308,327.29,7.94,486.814
			c-6.886,51.406-24.263,118.343-72.812,146.657c-58.977,34.394-103.911-16.995-150.659-46.685
			C2029.596,204.458,1984.801,272.774,1905.958,271.11z"/>
		<path class="st15" d="M2166.887,109.053c-43.464-1.227-89.339-10.503-128.795,7.77c-21.938,10.16-40.262,28.332-63.793,33.882
			c-25.785,6.082-52.242-4.164-78.519-7.531c-61.909-7.931-121.461,22.39-177.599,49.669
			c-56.138,27.28-119.435,52.902-179.364,35.461c7.49-184.071,14.98-368.142,22.47-552.213
			c215.254-1.381,430.507-2.762,645.76-4.143c21.359-0.137,44.76,0.435,60.962,14.353c18.746,16.102,20.941,43.883,21.183,68.594
			c0.862,87.95-13.763,173.854-16.68,261.202C2270.257,83.667,2241.97,111.171,2166.887,109.053z"/>
		<path class="st14" d="M1907.629,20.066c-66.659,6.672-130.554,31.247-197.228,37.77c-66.674,6.523-142.482-10.265-179.155-66.328
			c1.782-95.079,3.565-190.159,5.348-285.238c242.29-3.971,484.58-7.943,726.87-11.913c28.228-0.463,40.933,293.809,6.244,324.952
			c-34.515,30.986-126.343,14.491-167.732,10.697C2037.394,24.085,1972.609,13.562,1907.629,20.066z"/>
		<path class="st15" d="M2136.178-182.971c-39.382,26.869-87.287,37.487-133.886,47.558
			c-156.781,33.883-313.562,67.767-470.342,101.65c-5.05-83.552-10.1-167.103-15.149-250.655
			c-0.213-3.518,397.544-11.342,433.781-11.381c62.588-0.068,159.575-17.277,218.753,2.663
			C2227.292-273.609,2170.18-206.169,2136.178-182.971z"/>
	</g>
	<g class="st7">
		<defs>
			<rect id="SVGID_9_" x="3033.864" y="-213.087" width="514" height="514"/>
		</defs>
		<use xlink:href="#SVGID_9_"  style="overflow:visible;fill:#D4A617;"/>
		<clipPath id="SVGID_10_">
			<use xlink:href="#SVGID_9_"  style="overflow:visible;"/>
		</clipPath>
		<path class="st16" d="M3622.493,2355.26c-23.931-35.076-33.388-77.743-42.358-119.247
			c-30.178-139.638-60.357-279.277-90.535-418.915c74.416-4.498,148.832-8.995,223.248-13.493
			c3.134-0.19,10.102,354.077,10.137,386.351c0.061,55.744,15.387,142.127-2.372,194.834
			C3703.221,2436.411,3643.155,2385.545,3622.493,2355.26z"/>
		<path class="st17" d="M3202.993,0.273c-2.332,27.462-18.489,58.716-0.739,79.8c20.812,24.721,70.239,9.357,86.058,37.536
			c16.009,28.516-23.849,64.498-10.374,94.295c8.22,18.176,32.431,23.009,51.975,19.013c19.543-3.996,37.547-14.191,57.31-16.901
			c28.457-3.903,58.597,9.539,74.709,33.317c16.112,23.779,17.423,56.754,3.249,81.737c-13.815,24.351-40.106,39.596-67.286,46.31
			c-27.18,6.713-55.573,5.95-83.559,5.146c-54.273-1.559-108.546-3.119-162.819-4.678c-38.036-1.093-80.15-3.881-106.764-31.078
			c-25.769-26.333-28.435-66.876-29.594-103.702c-1.815-57.692-3.851-115.382-5.444-173.08
			c-1.125-40.717-2.088-90.445,27.276-123.171C3085.727-109.499,3210.15-84.001,3202.993,0.273z"/>
		<path class="st17" d="M3368.848-255.028c-26.779,26.724-36.07,69.529-22.78,104.95c19.178,51.111,79.891,87.446,75,141.817
			c-3.285,36.526-37.21,69.424-27.006,104.65c6.95,23.992,33.28,38.13,58.244,38.978c24.965,0.848,48.977-8.678,72.133-18.043
			c25.331-10.245,50.661-20.489,75.991-30.734c19.517-7.894,39.347-15.968,55.744-29.173c27.881-22.453,42.965-57.805,47.933-93.256
			c8.773-62.609-12.399-128.748-55.899-174.623C3592.796-268.902,3434.933-320.976,3368.848-255.028z"/>
		<path class="st17" d="M3293.742-210.373c-5.559,20.327-2.7,44.859-17.893,59.462c-9.858,9.475-24.464,11.568-38.041,13.193
			c-36.693,4.39-73.385,8.781-110.078,13.171c-15.619,1.869-32.358,3.547-46.274-3.786c-21.022-11.077-27.497-39.953-19.631-62.375
			c7.865-22.422,26.527-39.278,45.955-52.959c58.154-40.95,129.966-62.137,201.041-59.313c23.568,0.937,84.7,12.801,56.425,41.529
			c-6.827,6.936-35.525,5.895-46.911,14.611C3306.535-237.807,3297.664-224.714,3293.742-210.373z"/>
	</g>
	<g class="st7">
		<defs>
			<rect id="SVGID_11_" x="-2158.144" y="-842.789" width="514" height="514"/>
		</defs>
		<use xlink:href="#SVGID_11_"  style="overflow:visible;fill:#E7C8D8;"/>
		<clipPath id="SVGID_12_">
			<use xlink:href="#SVGID_11_"  style="overflow:visible;"/>
		</clipPath>
		<g class="st18">
			<path class="st9" d="M-1149.907-112.639l-17.848,48.987c-2.555,7.014-89.089,242.143-220.002,279.078
				c-132.885,37.492-29.618-342.156-224.972-325.672c-195.36,16.499-586.281,396.519-768.252,154.903
				c-181.955-241.61-542.794-145.172-542.794-145.172l27.529-75.559c0,0,376.39-97.16,563.22,157.392
				c186.814,254.546,558.95-135.203,746.017-146.425c187.062-11.206,84.124,350.053,217.002,314.328
				C-1237.138,113.477-1153.2-123.075-1149.907-112.639z"/>
			<path class="st9" d="M-1074.867-318.601l-19.009,52.174c-13.161-41.777-87.348,179.183-220.214,209.674
				c-132.881,30.486-30.893-275.664-193.073-280.253c-162.185-4.573-477.992,414.297-679.381,120.981
				c-201.368-293.327-624.447-194.05-624.447-194.05l28.747-78.901c0,0,438.624-99.983,644.857,206.264
				s503.286-122.341,657.162-112.496c153.892,9.851,52.228,297.629,185.087,268.904
				C-1162.256-155.04-1091.321-370.814-1074.867-318.601z"/>
			<path class="st9" d="M-1037.008-422.512l-18.901,51.877c-19.747-62.649-87.431,147.939-220.304,174.907
				c-132.879,26.983-31.523-242.416-177.123-257.544c-145.589-15.107-423.85,423.194-634.944,104.012
				c-211.083-319.161-665.268-218.478-665.268-218.478l28.639-78.605c0,0,469.751-101.4,685.695,230.697
				c215.927,332.091,475.428-115.912,612.724-95.528c137.286,20.363,36.265,271.411,169.143,246.179
				C-1124.475-290.21-1060.027-495.607-1037.008-422.512z"/>
			<path class="st9" d="M-999.366-525.828l-18.798,51.596c-26.307-83.548-87.512,116.643-220.373,140.13
				c-132.871,23.465-32.179-209.195-161.173-234.835c-129.01-25.646-369.713,432.055-590.505,87.043
				c-220.803-345.033-706.099-242.927-706.099-242.927l28.531-78.308c0,0,500.864-102.822,726.516,255.125
				s447.585-109.476,568.286-78.558c120.707,30.902,20.318,245.199,153.187,223.485
				C-1086.92-424.807-1028.966-619.812-999.366-525.828z"/>
			<path class="st9" d="M-961.94-628.552l-18.685,51.284c-32.893-104.42-87.595,85.4-220.464,105.363
				c-132.868,19.962-32.803-175.962-145.217-212.141c-112.404-36.158-315.571,440.951-546.073,70.089
				S-2639.3-881.312-2639.3-881.312l28.428-78.027c0,0,531.985-104.223,767.332,279.568
				c235.362,383.798,419.743-103.04,523.87-61.599c104.106,41.451,4.364,219.003,137.237,200.776
				C-1049.565-558.805-998.12-743.424-961.94-628.552z"/>
			<path class="st9" d="M-949.174-663.589l-6.431,17.652c-32.887-104.436-86.247,54.696-217.353,66.082
				c-126.23,10.968-41.627-152.228-143.269-193.011c-108.987-44.079-283.482,387.456-525.747,51.502
				c-247.255-342.851-753.952-278.993-753.952-278.993l15.037-41.271c0,0,479.428-25.291,740.572,278.419
				c247.161,287.45,413.648-87.867,527.63-41.42c99.087,40.366,29.92,189.315,149.316,185.252
				C-1033.806-623.77-978.78-757.558-949.174-663.589z"/>
			<path class="st9" d="M-937.928-694.456l-4.638,12.731c-26.312-83.532-82.764,25.176-211.042,22.34
				c-112.388-2.497-58.769-137.718-155.342-177.504c-118.897-48.981-280.277,270.212-529.528,31.333
				c-277.698-266.142-727.187-277.859-727.187-277.859l13.249-36.365c0,0,416.202,47.86,713.807,277.284
				c247.9,191.108,407.609-72.797,531.411-21.251c94.07,39.175,56.128,161.139,161.374,169.739
				C-1018.64-683.608-960.947-767.552-937.928-694.456z"/>
			<path class="st9" d="M-927.075-724.246l-5.811,15.949c-19.742-62.665-78.538-3.081-204.735-21.439
				c-98.036-14.255-75.82-123.458-167.421-161.98c-128.695-54.143-290.432,156.417-533.304,11.148
				c-321.333-192.222-700.411-276.703-700.411-276.703l14.422-39.583c0,0,338.139,123.657,687.026,276.144
				c234.504,102.479,401.61-57.837,535.187-1.066c89.131,37.871,82.634,134.77,173.468,154.222
				C-1003.417-740.736-943.529-776.459-927.075-724.246z"/>
			<path class="st9" d="M-907.827-777.076l-11.098,30.461c-13.161-41.776-74.242-29.297-198.434-65.202
				c-83.677-24.187-92.827-109.27-179.478-146.467c-138.453-59.415-313.091,54.504-537.086-9.022
				c-379.38-107.594-673.651-275.553-673.651-275.553l19.715-54.111c0,0,249.462,220.041,660.266,274.994
				c213.134,28.498,395.657-43.002,538.968,19.104c84.199,36.499,108.8,110.206,185.526,138.708
				C-980.235-818.497-917.695-808.416-907.827-777.076z"/>
			<path class="st9" d="M-883.713-843.261l-12.282,33.71c-6.581-20.888-71.057-52.802-192.133-108.965
				c-70.02-32.483-109.784-95.17-191.557-130.944c-148.138-64.837-336.954-32.4-540.845-29.201
				c-440.19,6.906-646.886-274.419-646.886-274.419l20.887-57.329c0,0,169.133,350.962,633.49,273.838
				c197.875-32.87,389.875-28.493,542.744,39.288c79.361,34.966,133.93,86.981,197.604,123.185
				C-954.109-906.67-887.006-853.698-883.713-843.261z"/>
			<path class="st9" d="M-1112.93-214.128l-19.111,52.455c-6.581-20.888-87.261,210.463-220.144,244.452
				c-132.867,33.994-30.248-308.907-209.028-302.948c-178.759,5.95-532.134,405.401-723.792,137.924
				c-191.68-267.466-583.631-169.606-583.631-169.606l28.849-79.182c0,0,407.512-98.561,604.036,181.835
				c196.53,280.381,531.129-128.777,701.6-129.465c170.472-0.688,68.161,323.835,201.037,291.613
				C-1200.233-19.287-1122.804-245.453-1112.93-214.128z"/>
		</g>
	</g>
	<g class="st7">
		<defs>
			<rect id="SVGID_13_" x="-823.143" y="-842.789" width="514" height="514"/>
		</defs>
		<use xlink:href="#SVGID_13_"  style="overflow:visible;fill:#EC9D5E;"/>
		<clipPath id="SVGID_14_">
			<use xlink:href="#SVGID_13_"  style="overflow:visible;"/>
		</clipPath>
		<path class="st19" d="M-717.148-750.772c49.816-3.605,100.668,4.714,149.413-6.18c39.678-8.868,75.493-29.958,114.131-42.612
			c49.645-16.258,102.713-18.232,153.881-28.762c51.167-10.529,103.729-32.212,132.459-75.841
			c5.865,210.32,11.729,420.64,17.594,630.961c0.285,10.211,0.428,21.017-4.661,29.875c-9.398,16.359-31.541,18.887-50.396,19.543
			c-201.456,7.007-402.912,14.014-604.368,21.022c-13.094,0.455-27.478,0.497-37.589-7.835
			c-10.008-8.248-12.774-22.19-14.902-34.983C-886.342-394.391-946.001-734.21-717.148-750.772z"/>
		<path class="st20" d="M-715.386-676.749c48.723,13.271,95.096,41.29,145.509,38.346c32.742-1.912,65.601-16.956,97.259-8.387
			c21.508,5.822,38.591,21.663,57.567,33.34c48.586,29.896,113.352,31.334,163.217,3.626c20.689-11.495,45.896-27.784,65.429-14.42
			c13.475,9.219,15.643,27.882,16.549,44.184c6.486,116.779,12.972,233.557,19.458,350.335
			c-235.8,2.956-471.599,5.912-707.399,8.868c1.724-110.137,3.451-220.273,5.174-330.409c0.6-38.356-6.887-77.7,23.72-106.085
			C-799.384-684.726-752.516-686.862-715.386-676.749z"/>
		<path class="st19" d="M-804.956-530.094c29.567-4.704,58.837,8.091,85.84,21.021c27.003,12.93,55.552,26.66,85.366,23.938
			c39.482-3.606,71.409-35.166,110.369-42.514c32.954-6.215,66.328,5.584,99.713,8.756c91.773,8.721,175.812-47.193,250.974-100.57
			c13.301,133.798,26.602,267.597,39.903,401.396c-254.575-1.949-509.151-3.898-763.726-5.847
			c10.443-67.604,24.651-135.766,31.131-203.86C-861.439-469.251-858.17-521.628-804.956-530.094z"/>
		<path class="st20" d="M-747.951-376.974c49.88,8.833,98.493,31.425,148.889,26.314c75.25-7.631,131.367-73.993,203.705-96.083
			c33.951-10.368,70.063-10.522,105.15-15.918s71.5-17.534,93.587-45.326c0.993,90.792,1.986,181.585,2.979,272.377
			c-225.995,5.612-451.99,11.224-677.984,16.836c0.929-33.42-12.25-95.873,3.186-125.067
			C-848.726-381.122-782.877-383.158-747.951-376.974z"/>
	</g>
	<g class="st7">
		<defs>
			<rect id="SVGID_15_" x="468.794" y="-842.789" width="514" height="514"/>
		</defs>
		<use xlink:href="#SVGID_15_"  style="overflow:visible;fill:#E7C8D8;"/>
		<clipPath id="SVGID_16_">
			<use xlink:href="#SVGID_15_"  style="overflow:visible;"/>
		</clipPath>
		<g class="st21">
			<path class="st13" d="M1182.063-129.273l-22.471,61.675c-3.217,8.83-112.163,304.857-276.982,351.359
				c-167.302,47.202-37.289-430.773-283.239-410.02C353.413-105.487-138.755,372.957-367.856,68.763
				c-229.081-304.186-683.375-182.771-683.375-182.771l34.659-95.128c0,0,473.874-122.324,709.092,198.156
				C-72.281,309.493,396.236-181.2,631.753-195.328c235.51-14.108,105.912,440.716,273.205,395.738
				C1072.239,155.406,1177.917-142.412,1182.063-129.273z"/>
			<path class="st13" d="M1276.538-388.578l-23.932,65.687c-16.57-52.597-109.971,225.59-277.248,263.979
				C808.061-20.53,936.463-405.973,732.28-411.75c-204.19-5.758-601.79,521.599-855.339,152.315
				c-253.522-369.297-786.176-244.308-786.176-244.308l36.192-99.337c0,0,552.226-125.878,811.873,259.685
				s633.635-154.027,827.365-141.633c193.75,12.402,65.755,374.714,233.024,338.549
				C1166.514-182.656,1255.822-454.314,1276.538-388.578z"/>
			<path class="st13" d="M1324.201-519.401l-23.796,65.313c-24.862-78.875-110.075,186.255-277.362,220.208
				c-167.294,33.972-39.688-305.201-222.997-324.248C616.75-577.147,266.42-25.328,0.655-427.177
				C-265.098-829-836.916-702.24-836.916-702.24l36.056-98.963c0,0,591.415-127.662,863.287,290.447
				C334.279-92.654,660.99-656.688,833.846-631.024c172.843,25.637,45.658,341.705,212.95,309.939
				C1214.081-352.833,1295.22-611.428,1324.201-519.401z"/>
			<path class="st13" d="M1371.593-649.477l-23.667,64.959c-33.12-105.186-110.178,146.854-277.449,176.423
				c-167.284,29.542-40.513-263.375-202.916-295.656c-162.422-32.288-465.467,543.955-743.444,109.587
				c-277.99-434.395-888.977-305.844-888.977-305.844l35.92-98.589c0,0,630.586-129.453,914.681,321.201
				s563.508-137.83,715.471-98.904c151.97,38.905,25.58,308.704,192.862,281.367
				C1261.363-522.291,1334.327-767.802,1371.593-649.477z"/>
			<path class="st13" d="M1418.712-778.805l-23.524,64.566c-41.412-131.465-110.282,107.519-277.564,132.651
				c-167.281,25.132-41.299-221.536-182.828-267.085c-141.516-45.523-397.303,555.156-687.504,88.242
				s-940.371-336.598-940.371-336.598l35.791-98.235c0,0,669.768-131.217,966.068,351.976
				c296.32,483.2,528.455-129.727,659.55-77.553c131.069,52.187,5.494,275.723,172.781,252.776
				C1308.392-690.994,1373.161-923.429,1418.712-778.805z"/>
			<path class="st13" d="M1434.784-822.917l-8.097,22.223c-41.405-131.485-108.584,68.862-273.647,83.197
				c-158.923,13.809-52.409-191.654-180.375-243c-137.215-55.495-356.903,487.806-661.914,64.841
				c-311.293-431.648-949.223-351.252-949.223-351.252l18.931-51.96c0,0,603.599-31.842,932.378,350.528
				c311.175,361.899,520.782-110.624,664.284-52.148c124.75,50.82,37.669,238.347,187.988,233.232
				C1328.234-772.785,1397.511-941.223,1434.784-822.917z"/>
			<path class="st13" d="M1448.943-861.779l-5.84,16.028c-33.127-105.167-104.2,31.697-265.701,28.126
				c-141.496-3.144-73.99-173.386-195.575-223.477c-149.691-61.667-352.868,340.196-666.675,39.448
				c-349.62-335.072-915.525-349.824-915.525-349.824l16.681-45.784c0,0,523.997,60.256,898.68,349.1
				c312.105,240.604,513.179-91.651,669.045-26.755c118.434,49.321,70.665,202.873,203.169,213.701
				C1347.327-848.12,1419.962-953.806,1448.943-861.779z"/>
			<path class="st13" d="M1462.607-899.283l-7.316,20.08c-24.855-78.895-98.879-3.879-257.761-26.991
				c-123.427-17.947-95.457-155.433-210.782-203.933c-162.027-68.166-365.653,196.928-671.428,14.035
				c-404.557-242.007-881.815-348.369-881.815-348.369l18.157-49.835c0,0,425.716,155.684,864.963,347.664
				c295.239,129.02,505.626-72.817,673.799-1.342c112.216,47.679,104.036,169.675,218.396,194.165
				C1366.492-920.044,1441.891-965.019,1462.607-899.283z"/>
			<path class="st13" d="M1486.84-965.796l-13.972,38.35c-16.57-52.596-93.471-36.884-249.828-82.089
				c-105.349-30.452-116.869-137.57-225.963-184.401c-174.312-74.803-394.181,68.621-676.189-11.358
				c-477.639-135.46-848.125-346.921-848.125-346.921l24.821-68.126c0,0,314.071,277.031,831.272,346.216
				c268.335,35.879,498.131-54.139,678.559,24.051c106.006,45.952,136.979,138.749,233.576,174.633
				C1395.679-1017.946,1474.417-1005.254,1486.84-965.796z"/>
			<path class="st13" d="M1517.2-1049.124l-15.463,42.441c-8.285-26.298-89.461-66.478-241.895-137.186
				c-88.155-40.896-138.217-119.819-241.17-164.858c-186.505-81.63-424.224-40.791-680.923-36.764
				c-554.197,8.694-814.427-345.492-814.427-345.492l26.297-72.177c0,0,212.938,441.86,797.562,344.761
				c249.123-41.384,490.851-35.873,683.313,49.464c99.915,44.022,168.618,109.508,248.783,155.09
				C1428.572-1128.955,1513.054-1062.264,1517.2-1049.124z"/>
			<path class="st13" d="M1228.616-257.047l-24.061,66.041c-8.285-26.298-109.861,264.972-277.161,307.764
				c-167.279,42.799-38.082-388.913-263.166-381.41C439.171-257.161-5.726,245.746-247.024-91.006
				c-241.324-336.739-734.789-213.533-734.789-213.533l36.321-99.69c0,0,513.056-124.088,760.479,228.93
				C62.417,177.699,483.676-337.429,698.3-338.296c214.624-0.867,85.814,407.707,253.105,367.14
				C1118.702-11.743,1216.185-296.485,1228.616-257.047z"/>
		</g>
	</g>
	<g class="st7">
		<defs>
			<rect id="SVGID_17_" x="1782.263" y="-842.789" width="514" height="514"/>
		</defs>
		<use xlink:href="#SVGID_17_"  style="overflow:visible;fill:#D4A617;"/>
		<clipPath id="SVGID_18_">
			<use xlink:href="#SVGID_17_"  style="overflow:visible;"/>
		</clipPath>
		<path class="st22" d="M1905.958-358.592c-40.727-0.859-74.558-29.577-110.3-49.119c-73.988-40.453-167.853-42.118-243.228-4.314
			c-4.766-153.903-9.531-307.806-14.297-461.709c-0.439-14.164-0.418-29.736,8.673-40.607c10.372-12.402,28.504-14.05,44.655-14.766
			c244.335-10.845,488.67-21.689,733.006-32.534c21.191,159.019,29.308,327.289,7.94,486.814
			c-6.886,51.406-24.263,118.343-72.812,146.657c-58.977,34.394-103.911-16.995-150.659-46.685
			C2029.596-425.244,1984.801-356.928,1905.958-358.592z"/>
		<path class="st23" d="M2166.887-520.649c-43.464-1.227-89.339-10.503-128.795,7.77c-21.938,10.16-40.262,28.332-63.793,33.882
			c-25.785,6.082-52.242-4.164-78.519-7.531c-61.909-7.931-121.461,22.39-177.599,49.669
			c-56.138,27.28-119.435,52.902-179.364,35.461c7.49-184.071,14.98-368.142,22.47-552.213
			c215.254-1.381,430.507-2.762,645.76-4.143c21.359-0.137,44.76,0.435,60.962,14.353c18.746,16.102,20.941,43.883,21.183,68.594
			c0.862,87.95-13.763,173.854-16.68,261.202C2270.257-546.035,2241.97-518.53,2166.887-520.649z"/>
		<path class="st22" d="M1907.629-609.636c-66.659,6.672-130.554,31.247-197.228,37.77c-66.674,6.523-142.482-10.265-179.155-66.328
			c1.782-95.079,3.565-190.159,5.348-285.238c242.29-3.971,484.58-7.943,726.87-11.913c28.228-0.463,40.933,293.809,6.244,324.952
			c-34.515,30.986-126.343,14.492-167.732,10.697C2037.394-605.617,1972.609-616.14,1907.629-609.636z"/>
		<path class="st23" d="M2136.178-812.673c-39.382,26.869-87.287,37.487-133.886,47.558
			c-156.781,33.883-313.562,67.767-470.342,101.65c-5.05-83.552-10.1-167.103-15.149-250.655
			c-0.213-3.518,397.544-11.342,433.781-11.381c62.588-0.068,159.575-17.277,218.753,2.663
			C2227.292-903.31,2170.18-835.871,2136.178-812.673z"/>
	</g>
	<g class="st7">
		<defs>
			<rect id="SVGID_19_" x="3033.864" y="-842.789" width="514" height="514"/>
		</defs>
		<use xlink:href="#SVGID_19_"  style="overflow:visible;fill:#D4A617;"/>
		<clipPath id="SVGID_20_">
			<use xlink:href="#SVGID_19_"  style="overflow:visible;"/>
		</clipPath>
		<path class="st24" d="M3622.493,1725.559c-23.931-35.076-33.388-77.743-42.358-119.247
			c-30.178-139.638-60.357-279.277-90.535-418.915c74.416-4.498,148.832-8.995,223.248-13.493
			c3.134-0.19,10.102,354.077,10.137,386.351c0.061,55.744,15.387,142.127-2.372,194.834
			C3703.221,1806.71,3643.155,1755.843,3622.493,1725.559z"/>
		<path class="st25" d="M3202.993-629.429c-2.332,27.462-18.489,58.716-0.739,79.8c20.812,24.721,70.239,9.357,86.058,37.536
			c16.009,28.516-23.849,64.498-10.374,94.295c8.22,18.176,32.431,23.009,51.975,19.013c19.543-3.996,37.547-14.191,57.31-16.901
			c28.457-3.903,58.597,9.539,74.709,33.317c16.112,23.779,17.423,56.754,3.249,81.737c-13.815,24.351-40.106,39.596-67.286,46.31
			c-27.18,6.713-55.573,5.95-83.559,5.146c-54.273-1.559-108.546-3.119-162.819-4.678c-38.036-1.093-80.15-3.881-106.764-31.078
			c-25.769-26.333-28.435-66.876-29.594-103.702c-1.815-57.692-3.851-115.382-5.444-173.08
			c-1.125-40.717-2.088-90.445,27.276-123.171C3085.727-739.201,3210.15-713.703,3202.993-629.429z"/>
		<path class="st25" d="M3368.848-884.73c-26.779,26.724-36.07,69.529-22.78,104.95c19.178,51.111,79.891,87.446,75,141.817
			c-3.285,36.526-37.21,69.424-27.006,104.65c6.95,23.992,33.28,38.13,58.244,38.978c24.965,0.848,48.977-8.678,72.133-18.043
			c25.331-10.245,50.661-20.489,75.991-30.734c19.517-7.894,39.347-15.968,55.744-29.173c27.881-22.453,42.965-57.805,47.933-93.256
			c8.773-62.609-12.399-128.748-55.899-174.623C3592.796-898.604,3434.933-950.678,3368.848-884.73z"/>
		<path class="st25" d="M3293.742-840.075c-5.559,20.327-2.7,44.859-17.893,59.462c-9.858,9.475-24.464,11.568-38.041,13.193
			c-36.693,4.39-73.385,8.781-110.078,13.171c-15.619,1.869-32.358,3.547-46.274-3.786c-21.022-11.077-27.497-39.953-19.631-62.375
			s26.527-39.278,45.955-52.959c58.154-40.95,129.966-62.137,201.041-59.313c23.568,0.937,84.7,12.801,56.425,41.529
			c-6.827,6.936-35.525,5.895-46.911,14.611C3306.535-867.509,3297.664-854.416,3293.742-840.075z"/>
	</g>
</g>
<g>
	<g>
		<path class="main" d="M267.826,33.434c5.636,0,7.922,4.533,7.922,8.947c0,3.665-1.379,7.252-5.124,8.158l5.754,10.051h-6.188
			l-5.084-9.223h-1.183v9.223h-5.754V33.434H267.826z M263.924,38.637v7.527h2.798c2.72,0,3.271-2.049,3.271-3.783
			c0-1.655-0.552-3.744-3.271-3.744H263.924z"/>
		<path class="main" d="M286.549,47.071c0-8.435,5.281-13.952,12.021-13.952s12.061,5.518,12.061,13.952
			c0,8.513-5.321,13.913-12.061,13.913S286.549,55.584,286.549,47.071z M304.876,47.071c0-5.281-2.759-8.75-6.306-8.75
			c-3.547,0-6.267,3.469-6.267,8.75c0,5.32,2.72,8.71,6.267,8.71C302.117,55.781,304.876,52.392,304.876,47.071z"/>
		<path class="main" d="M321.038,47.071c0-8.435,5.281-13.952,12.021-13.952s12.061,5.518,12.061,13.952
			c0,8.513-5.321,13.913-12.061,13.913S321.038,55.584,321.038,47.071z M339.365,47.071c0-5.281-2.759-8.75-6.306-8.75
			c-3.547,0-6.267,3.469-6.267,8.75c0,5.32,2.72,8.71,6.267,8.71C336.606,55.781,339.365,52.392,339.365,47.071z"/>
		<path class="main" d="M376.218,33.434h4.572l2.798,27.156h-5.754l-1.458-15.253l-4.729,12.14h-4.06l-4.729-12.14l-1.458,15.253
			h-5.794l2.838-27.156h4.572l6.582,16.317L376.218,33.434z"/>
	</g>
	<g>
		<path class="main" d="M127.943,21.302h2.242v47.556c0,10.371-3.363,17.472-12.613,17.846c-5.699,0.28-11.118-1.775-13.921-6.167
			c-1.401-2.242-2.523-7.661,1.588-9.716c2.803-1.401,5.792-0.748,7.287,2.148c0.841,1.775,0.748,4.298,1.122,5.886
			c0.841,2.99,2.709,4.205,4.858,3.737c1.682-0.373,2.803-2.242,2.149-5.419c-1.121-5.886-3.644-5.792-3.644-14.388v-29.15
			c0-3.644-0.935-5.512-4.485-5.792v-2.99L127.943,21.302z M114.863,7.941C114.863,2.99,118.6,0,123.084,0
			c4.485,0,8.222,2.99,8.222,7.941c0,5.046-3.737,7.942-8.222,7.942C118.6,15.884,114.863,12.987,114.863,7.941z"/>
		<path class="main" d="M185.775,44.286c0,15.042-11.211,23.077-24.198,23.077s-24.198-8.035-24.198-23.077
			s11.211-22.984,24.198-22.984S185.775,29.244,185.775,44.286z M172.135,44.286c0-11.118-3.737-19.153-10.558-19.153
			s-10.651,8.035-10.651,19.153s3.831,19.246,10.651,19.246S172.135,55.404,172.135,44.286z"/>
		<path class="main" d="M234.641,22.144v2.989c-2.99,0.187-4.204,1.308-5.605,4.578l-16.257,39.054
			c-6.167,14.107-9.623,17.845-15.416,18.873c-3.083,0.561-8.222-0.094-10.838-2.43c-1.775-1.495-4.111-5.419-1.121-8.502
			c2.803-2.896,7.101-1.309,8.128,2.148c0.561,2.056,1.028,4.485,4.205,4.205c2.429-0.188,5.512-1.589,10.651-14.015l-17.191-38.026
			c-1.588-3.457-3.177-5.605-6.634-5.886v-2.989h23.451v2.989c-3.457,0.28-4.111,2.429-2.709,5.886l9.437,22.797l9.997-24.104
			c1.028-2.522,0.467-4.484-2.429-4.578v-2.989H234.641z"/>
	</g>
	<g>
		<path class="main" d="M18.445,33.434v5.203H12.1V60.59H6.345V38.637H0v-5.203H18.445z"/>
		<path class="main" d="M48.401,60.59h-5.754V49.751h-7.213V60.59H29.68V33.434h5.754v11.115h7.213V33.434h5.754V60.59z"/>
		<path class="main" d="M76.899,33.434v5.203h-9.656v5.872h8.356v5.203h-8.356v5.676h9.893v5.202H61.488V33.434H76.899z"/>
	</g>
</g>
</svg>
